<svg id="final_svg" viewBox="1403.6524658203125 688.8765258789062 520.7115478515625 494.24700927734375" xmlns="http://www.w3.org/2000/svg" xmlns:xlink="http://www.w3.org/1999/xlink" xml:space="preserve">
      <g id="png_group" transform="translate(1403.6525, 688.8765) scale(1.653)" opacity="1">
      <g height="494.247" width="520.695" transform="rotate(0)">
                  <style type="text/css">.st0{fill:#AAAAAA;}</style>

          <g id="color_index_0" fill="#F0275B">
                          <g>
                                  <g>
                                          <path d="M273.54,115.6v-7.74c3.35,2.48,6.48,5.07,9.39,7.73c1.7,0,3.08,0,4.1,0c0.04,0,0.09,0,0.13,0l-0.13-0.12				l-1.24-1.16c-3.71-3.47-7.81-6.83-12.25-10.01c-0.94-0.68-1.9-1.35-2.88-2.01c-0.59-0.4-1.18-0.81-1.78-1.2				c-3.75-2.47-7.66-4.8-11.71-6.99c-0.95-0.51-1.91-1.02-2.88-1.51c-4.34-2.23-8.85-4.3-13.5-6.2c-0.95-0.39-1.91-0.78-2.88-1.15				c-4.38-1.71-8.88-3.27-13.49-4.69c-0.95-0.29-1.91-0.58-2.88-0.86c-4.41-1.28-8.91-2.43-13.5-3.44				c-0.95-0.21-1.91-0.42-2.88-0.61c-4.43-0.92-8.93-1.7-13.5-2.36c-0.95-0.13-1.91-0.27-2.88-0.39				c-10.29-1.35-20.88-2.04-31.65-2.04c-10.52,0-20.88,0.66-30.95,1.96c-0.96,0.12-1.92,0.25-2.88,0.38				c-4.56,0.64-9.07,1.41-13.5,2.32c-0.96,0.2-1.92,0.4-2.88,0.6c-4.58,1-9.09,2.13-13.5,3.39c-0.96,0.28-1.92,0.56-2.88,0.85				c-4.61,1.4-9.11,2.94-13.49,4.63c-0.96,0.37-1.92,0.75-2.88,1.14c-4.65,1.88-9.15,3.93-13.5,6.14c-0.97,0.48-1.93,0.98-2.88,1.49				c-4.31,2.29-8.45,4.74-12.41,7.35c-0.35,0.23-0.71,0.48-1.08,0.74c-0.92,0.64-1.88,1.36-2.88,2.12				c-5.36,4.12-11.36,9.56-13.49,11.52c-0.05,0.04-0.08,0.08-0.13,0.12h0.13h3.9c0,0,0.08,0.01,0.24,0.01				c2.4-2.15,5.92-5.24,9.35-7.98v8.04c0.9,0,1.86,0,2.88,0.01v-10.27c0.93-0.7,1.83-1.34,2.67-1.88c3.47-2.29,7.09-4.45,10.83-6.49				v18.67c0.94,0,1.9,0,2.88,0v-20.2c4.34-2.25,8.85-4.34,13.5-6.26v26.47c0.95,0,1.91,0,2.88,0V88.06				c4.38-1.72,8.88-3.29,13.49-4.71v32.34c0.95,0,1.91,0,2.88,0v-33.2c4.41-1.29,8.91-2.44,13.5-3.45v36.65c0.95,0,1.91,0,2.88,0				V78.43c4.43-0.92,8.93-1.7,13.5-2.35v39.6c0.96,0,1.91,0,2.88,0v-40c4.44-0.58,8.95-1.03,13.49-1.35c0,0,0,0,0,0v41.34				c0.96,0,1.92,0,2.88,0V74.15c4.46-0.27,8.96-0.41,13.49-0.43v41.96c0.96,0,1.92,0,2.88,0V73.72c4.53,0.03,9.04,0.19,13.49,0.47				v41.47c0.96,0,1.92,0,2.88,0V74.39c0,0,0,0,0,0c4.55,0.34,9.05,0.8,13.49,1.39v39.88c0.96,0,1.92,0,2.88,0V76.18				c4.56,0.67,9.07,1.47,13.5,2.4v37.07c0.96,0,1.92,0,2.88,0V79.19c4.59,1.03,9.09,2.2,13.5,3.5v32.94c0.97,0,1.92,0,2.88,0V83.57				c4.61,1.44,9.11,3.03,13.49,4.77v27.29c0.97,0,1.93,0,2.88,0V89.51c4.66,1.94,9.16,4.06,13.5,6.33v19.77c0.97,0,1.93,0,2.88,0				V97.39c3.5,1.93,6.88,3.96,10.13,6.11c1.14,0.75,2.26,1.52,3.37,2.29v9.81C271.66,115.6,272.61,115.6,273.54,115.6z"></path>
                                      </g>
                  <g>
                                          <g>
                                                  <path d="M94.91,52.91c1.39-0.57,2.77-1.13,4.19-1.59c2.82-0.96,5.68-1.75,8.56-2.42c2.89-0.65,5.8-1.22,8.73-1.65					c1.46-0.23,2.93-0.42,4.4-0.59c1.45-0.18,2.96-0.31,4.36-0.41l2.49-0.17l-0.49-2.43c-0.3-1.5-0.57-3.01-0.71-4.53					c-0.1-0.76-0.11-1.51-0.15-2.27l-0.01-1.13c-0.01-0.38,0-0.76,0.02-1.13c0.11-3.02,0.71-6,1.8-8.84					c1.09-2.83,2.69-5.5,4.69-7.92c0.96-1.15,2-2.24,3.13-3.27c-1.09,2.7-1.7,5.64-1.7,8.72c0,12.84,10.45,23.29,23.29,23.29					c12.84,0,23.29-10.45,23.29-23.29c0-3-0.58-5.87-1.62-8.51c1.04,0.96,2.02,1.98,2.91,3.06c2,2.41,3.6,5.08,4.69,7.92					c1.08,2.84,1.68,5.82,1.8,8.84c0.02,0.38,0.03,0.75,0.02,1.13l-0.01,1.13c-0.04,0.76-0.06,1.51-0.16,2.27					c-0.14,1.51-0.4,3.02-0.71,4.53l-0.49,2.43l2.49,0.17c1.39,0.1,2.9,0.23,4.36,0.41c1.47,0.17,2.94,0.36,4.4,0.59					c2.93,0.43,5.84,0.99,8.73,1.65c2.89,0.66,5.74,1.46,8.56,2.42c1.42,0.46,2.8,1.02,4.19,1.59c0.69,0.3,1.38,0.59,2.06,0.93					c0.7,0.3,1.36,0.67,2.05,1c-0.54-0.54-1.1-1.07-1.69-1.56c-0.58-0.5-1.2-0.96-1.82-1.43c-1.25-0.9-2.57-1.72-3.91-2.5					c-2.71-1.51-5.57-2.74-8.5-3.75c-1.1-0.38-2.22-0.72-3.34-1.04c-0.06-3.74-0.9-7.39-2.31-10.74c-1.48-3.53-3.58-6.74-6.1-9.51					c-2.52-2.77-5.45-5.1-8.59-7.02c-3.01-1.84-6.21-3.3-9.49-4.45c0,0-0.01,0-0.01-0.01C174.46,5.23,166.58,0,157.5,0					c-9.05,0-16.9,5.19-20.76,12.75c-0.46,0.23-0.91,0.47-1.36,0.72c-0.12,0.07-0.23,0.14-0.34,0.21c-2.5,1-4.92,2.19-7.24,3.61					c-3.13,1.92-6.06,4.25-8.59,7.02c-2.53,2.77-4.62,5.98-6.1,9.51c-1.38,3.28-2.21,6.85-2.31,10.52					c-1.38,0.37-2.74,0.79-4.09,1.25c-2.93,1.01-5.79,2.24-8.5,3.75c-1.34,0.78-2.66,1.6-3.91,2.5c-0.61,0.47-1.23,0.93-1.82,1.43					c-0.59,0.5-1.15,1.03-1.69,1.56c0.7-0.33,1.35-0.7,2.05-1C93.53,53.5,94.22,53.21,94.91,52.91z M187.2,18.18					c2.86,2.16,5.43,4.68,7.53,7.5c2.1,2.82,3.72,5.96,4.73,9.25c0.87,2.81,1.27,5.72,1.16,8.57c-0.48-0.11-0.95-0.21-1.43-0.31					c-1.52-0.29-3.04-0.56-4.58-0.77c-0.75-0.1-1.5-0.19-2.26-0.27c0.14-0.88,0.25-1.78,0.29-2.68c0.08-0.85,0.07-1.72,0.09-2.58					c0-0.43-0.02-0.86-0.04-1.29c-0.01-0.43-0.05-0.86-0.09-1.29c-0.07-0.86-0.2-1.72-0.33-2.57c-0.17-0.85-0.35-1.7-0.59-2.53					c-0.46-1.67-1.09-3.29-1.86-4.83c-1.56-3.07-3.72-5.8-6.26-8c-1.29-1.08-2.63-2.08-4.07-2.91c-0.07-0.04-0.15-0.08-0.22-0.12					C182.06,14.72,184.74,16.32,187.2,18.18z M157.5,3.84c10.73,0,19.45,8.73,19.45,19.45c0,10.73-8.73,19.45-19.45,19.45					c-10.73,0-19.45-8.73-19.45-19.45C138.05,12.56,146.77,3.84,157.5,3.84z M116.15,34.93c1.01-3.29,2.63-6.43,4.73-9.25					c2.1-2.82,4.67-5.34,7.53-7.5c1.28-0.97,2.62-1.86,4-2.69c-0.37,0.29-0.74,0.58-1.1,0.89c-2.55,2.2-4.7,4.93-6.26,8					c-0.77,1.54-1.4,3.16-1.86,4.83c-0.25,0.83-0.42,1.68-0.59,2.53c-0.13,0.85-0.27,1.71-0.34,2.57c-0.05,0.43-0.08,0.86-0.09,1.29					c-0.02,0.43-0.04,0.86-0.04,1.29c0.02,0.86,0.01,1.72,0.09,2.58c0.05,0.9,0.16,1.79,0.29,2.68c-0.76,0.08-1.51,0.17-2.26,0.27					c-1.53,0.21-3.06,0.47-4.58,0.77c-0.23,0.05-0.46,0.1-0.68,0.15C114.9,40.54,115.3,37.69,116.15,34.93z"></path>
                                              </g>
                                      </g>
                  <g>
                                          <circle cx="105" cy="40.49" r="2.61"></circle>
                                      </g>
                  <g>
                                          <path d="M97.31,45.72c0.9,0,1.62-0.73,1.62-1.62s-0.73-1.62-1.62-1.62c-0.9,0-1.62,0.73-1.62,1.62				S96.41,45.72,97.31,45.72z"></path>
                                      </g>
                  <g>
                                          <path d="M210.4,43.1c1.44,0,2.61-1.17,2.61-2.61c0-1.44-1.17-2.61-2.61-2.61c-1.44,0-2.61,1.17-2.61,2.61				C207.8,41.93,208.96,43.1,210.4,43.1z"></path>
                                      </g>
                  <g>
                                          <path d="M218.1,45.72c0.9,0,1.62-0.73,1.62-1.62s-0.73-1.62-1.62-1.62c-0.9,0-1.62,0.73-1.62,1.62				S217.2,45.72,218.1,45.72z"></path>
                                      </g>
                  <g>
                                          <path d="M152.79,64.51c0-1.44-1.17-2.61-2.61-2.61c-1.44,0-2.61,1.17-2.61,2.61c0,1.44,1.17,2.61,2.61,2.61				C151.62,67.11,152.79,65.95,152.79,64.51z"></path>
                                      </g>
                  <g>
                                          <path d="M135.11,65.44c0-1.44-1.17-2.61-2.61-2.61c-1.44,0-2.61,1.17-2.61,2.61c0,1.44,1.17,2.61,2.61,2.61				C133.94,68.04,135.11,66.88,135.11,65.44z"></path>
                                      </g>
                  <g>
                                          <circle cx="115.6" cy="68.07" r="2.61"></circle>
                                      </g>
                  <g>
                                          <path d="M101.78,71.33c0-1.44-1.17-2.61-2.61-2.61c-1.44,0-2.61,1.17-2.61,2.61c0,1.44,1.17,2.61,2.61,2.61				C100.61,73.94,101.78,72.77,101.78,71.33z"></path>
                                      </g>
                  <g>
                                          <path d="M84.92,76.48c0-1.44-1.17-2.61-2.61-2.61c-1.44,0-2.61,1.17-2.61,2.61c0,1.44,1.17,2.61,2.61,2.61				C83.75,79.09,84.92,77.92,84.92,76.48z"></path>
                                      </g>
                  <g>
                                          <circle cx="66.34" cy="83.15" r="2.61"></circle>
                                      </g>
                  <g>
                                          <circle cx="48.97" cy="92.14" r="2.61"></circle>
                                      </g>
                  <g>
                                          <path d="M35.66,102.75c0-1.44-1.17-2.61-2.61-2.61c-1.44,0-2.61,1.17-2.61,2.61c0,1.44,1.17,2.61,2.61,2.61				C34.49,105.36,35.66,104.19,35.66,102.75z"></path>
                                      </g>
                  <g>
                                          <circle cx="19.91" cy="115.08" r="2.61"></circle>
                                      </g>
                  <g>
                                          <circle cx="296.45" cy="115.08" r="2.61"></circle>
                                      </g>
                  <g>
                                          <circle cx="164.91" cy="64.51" r="2.61"></circle>
                                      </g>
                  <g>
                                          <path d="M185.19,65.44c0-1.44-1.17-2.61-2.61-2.61c-1.44,0-2.61,1.17-2.61,2.61c0,1.44,1.17,2.61,2.61,2.61				C184.02,68.04,185.19,66.88,185.19,65.44z"></path>
                                      </g>
                  <g>
                                          <circle cx="199.48" cy="68.07" r="2.61"></circle>
                                      </g>
                  <g>
                                          <path d="M218.52,71.33c0-1.44-1.17-2.61-2.61-2.61s-2.61,1.17-2.61,2.61c0,1.44,1.17,2.61,2.61,2.61				S218.52,72.77,218.52,71.33z"></path>
                                      </g>
                  <g>
                                          <path d="M235.38,76.48c0-1.44-1.17-2.61-2.61-2.61c-1.44,0-2.61,1.17-2.61,2.61c0,1.44,1.17,2.61,2.61,2.61				C234.21,79.09,235.38,77.92,235.38,76.48z"></path>
                                      </g>
                  <g>
                                          <circle cx="248.74" cy="83.15" r="2.61"></circle>
                                      </g>
                  <g>
                                          <circle cx="266.11" cy="92.14" r="2.61"></circle>
                                      </g>
                  <g>
                                          <path d="M285.13,103.63c0-1.44-1.17-2.61-2.61-2.61c-1.44,0-2.61,1.17-2.61,2.61s1.17,2.61,2.61,2.61				C283.96,106.24,285.13,105.07,285.13,103.63z"></path>
                                      </g>
                  <g>
                                          <path d="M29.21,86.23c1.44,0,2.61-1.17,2.61-2.61c0-1.44-1.17-2.61-2.61-2.61c-1.44,0-2.61,1.17-2.61,2.61				C26.6,85.07,27.77,86.23,29.21,86.23z"></path>
                                      </g>
                  <g>
                                          <path d="M21.29,91.26c1.18,0,2.14-0.96,2.14-2.14c0-1.18-0.96-2.14-2.14-2.14s-2.14,0.96-2.14,2.14				C19.15,90.3,20.11,91.26,21.29,91.26z"></path>
                                      </g>
                  <g>
                                          <circle cx="14.1" cy="95.42" r="1.42"></circle>
                                      </g>
                  <g>
                                          <path d="M289.21,86.23c1.44,0,2.61-1.17,2.61-2.61c0-1.44-1.17-2.61-2.61-2.61c-1.44,0-2.61,1.17-2.61,2.61				C286.6,85.07,287.77,86.23,289.21,86.23z"></path>
                                      </g>
                  <g>
                                          <path d="M297.13,91.26c1.18,0,2.14-0.96,2.14-2.14c0-1.18-0.96-2.14-2.14-2.14s-2.14,0.96-2.14,2.14				C294.99,90.3,295.95,91.26,297.13,91.26z"></path>
                                      </g>
                  <g>
                                          <path d="M304.32,96.84c0.78,0,1.42-0.63,1.42-1.42c0-0.78-0.63-1.42-1.42-1.42c-0.78,0-1.42,0.63-1.42,1.42				C302.91,96.21,303.54,96.84,304.32,96.84z"></path>
                                      </g>
                  <g>
                                          <path d="M246.33,234.83c-0.67,1.28-0.17,2.85,1.1,3.52c1.28,0.67,2.85,0.17,3.52-1.1c0.67-1.28,0.17-2.85-1.1-3.52				C248.57,233.06,246.99,233.56,246.33,234.83z"></path>
                                      </g>
                  <g>
                                          <path d="M238.2,239.52c-0.55,1.05-0.14,2.34,0.91,2.89c1.05,0.55,2.34,0.14,2.89-0.91c0.55-1.05,0.14-2.34-0.91-2.89				C240.04,238.07,238.75,238.47,238.2,239.52z"></path>
                                      </g>
                  <g>
                                          <path d="M229.92,243.31c-0.36,0.69-0.09,1.55,0.6,1.91c0.69,0.36,1.55,0.09,1.91-0.6c0.36-0.69,0.09-1.55-0.6-1.91				S230.29,242.62,229.92,243.31z"></path>
                                      </g>
                  <g>
                                          <path d="M67.17,233.73c-1.28,0.67-1.77,2.24-1.1,3.52c0.67,1.28,2.24,1.77,3.52,1.1c1.28-0.67,1.77-2.24,1.1-3.52				C70.02,233.56,68.44,233.06,67.17,233.73z"></path>
                                      </g>
                  <g>
                                          <ellipse transform="matrix(0.8673 -0.4979 0.4979 0.8673 -109.5327 70.2192)" cx="76.91" cy="240.51" rx="2.14" ry="2.14"></ellipse>
                                      </g>
                  <g>
                                          <path d="M85.18,242.71c-0.69,0.36-0.96,1.22-0.6,1.91c0.36,0.69,1.22,0.96,1.91,0.6c0.69-0.36,0.96-1.22,0.6-1.91				C86.73,242.62,85.87,242.35,85.18,242.71z"></path>
                                      </g>
                  <g>
                                          <path d="M120.84,250.18c-1.46,0-2.65,1.19-2.65,2.65s1.19,2.65,2.65,2.65c1.46,0,2.65-1.19,2.65-2.65				S122.31,250.18,120.84,250.18z"></path>
                                      </g>
                  <g>
                                          <path d="M191.46,252.83c0,1.46,1.19,2.65,2.65,2.65s2.65-1.19,2.65-2.65s-1.19-2.65-2.65-2.65				S191.46,251.36,191.46,252.83z"></path>
                                      </g>
                  <g>
                                          <g>
                                                  <path d="M310.41,216.2L310.41,216.2l-24.2-0.01v0.02h-0.14c-5.32,5.23-11.5,10.18-18.42,14.73					c-14.12,9.31-30.59,16.58-48.58,21.61c0.01-0.01,0.01-0.02,0.02-0.02c0.19-0.28,0.39-0.55,0.57-0.84l0.52-0.87l0.45-0.89					l0.4-0.93c0.49-1.26,0.8-2.62,0.81-4.02c0.01-1.4-0.31-2.82-0.97-4.05c-0.65-1.24-1.6-2.27-2.69-3.06					c-1.09-0.78-2.33-1.34-3.65-1.6c-0.66-0.12-1.35-0.17-2.06-0.06c-0.18,0.02-0.36,0.07-0.53,0.12c-0.17,0.05-0.31,0.11-0.47,0.17					c-0.31,0.1-0.61,0.26-0.9,0.39c-1.17,0.61-2.21,1.52-2.85,2.67c-0.65,1.14-0.92,2.49-0.73,3.77c0.19,1.27,0.87,2.49,1.92,3.2					c1.05,0.74,2.36,0.89,3.56,0.72c-0.41,0.03-0.83,0.01-1.24-0.05c0.66-0.01,1.32-0.19,1.92-0.55c1.79-1.09,2.36-3.43,1.26-5.22					c-1.09-1.79-3.43-2.36-5.22-1.26c-0.72,0.44-1.23,1.07-1.53,1.8c0.14-0.69,0.42-1.35,0.81-1.93c0.63-0.94,1.57-1.62,2.6-2.06					c0.27-0.09,0.52-0.21,0.8-0.27c0.13-0.03,0.28-0.08,0.4-0.11c0.12-0.02,0.24-0.05,0.37-0.05c0.5-0.04,1.04,0.04,1.57,0.19					c1.05,0.3,2.05,0.85,2.89,1.56c0.83,0.72,1.51,1.59,1.91,2.55c0.21,0.48,0.35,0.98,0.42,1.49c0.09,0.51,0.09,1.03,0.04,1.55					c-0.1,1.04-0.42,2.07-0.89,3.06l-0.39,0.73l-0.44,0.71l-0.47,0.67c-0.16,0.22-0.35,0.42-0.52,0.63					c-1.42,1.63-3.27,2.89-5.29,3.84c-9.34,2.24-19.05,3.88-29.01,4.91c-0.2-0.08-0.41-0.16-0.61-0.24					c-1.51-0.63-2.99-1.33-4.44-2.1c-2.89-1.53-5.63-3.32-8.02-5.44c-2.39-2.12-4.42-4.59-5.7-7.4c-0.32-0.7-0.59-1.42-0.81-2.16					c-0.23-0.76-0.41-1.52-0.53-2.28c-0.25-1.52-0.29-3.06,0.01-4.51c0.29-1.45,0.91-2.8,1.86-3.94c0.94-1.14,2.2-2.07,3.62-2.69					c1.41-0.63,2.99-0.98,4.54-0.96c0.77,0.01,1.53,0.13,2.2,0.38c0.16,0.06,0.33,0.13,0.47,0.21c0.15,0.08,0.34,0.2,0.5,0.3					c0.34,0.21,0.66,0.45,0.97,0.7c1.23,1,2.21,2.32,2.7,3.84c0.31,0.95,0.42,1.97,0.32,2.97c-0.11-1.11-0.55-2.19-1.36-3.08					c-1.99-2.2-5.39-2.37-7.59-0.38c-2.2,1.99-2.37,5.39-0.38,7.59c0.68,0.75,1.53,1.26,2.44,1.53c-0.6-0.08-1.19-0.23-1.75-0.44					c1.55,0.73,3.4,1.03,5.12,0.46c1.72-0.55,3.13-1.92,3.89-3.58c0.78-1.66,0.96-3.59,0.53-5.41c-0.42-1.82-1.45-3.48-2.8-4.77					c-0.34-0.32-0.69-0.62-1.06-0.9c-0.19-0.14-0.36-0.27-0.58-0.41c-0.22-0.15-0.45-0.27-0.68-0.38c-0.92-0.43-1.88-0.64-2.83-0.74					c-1.9-0.18-3.8,0.09-5.6,0.71c-1.79,0.63-3.49,1.65-4.88,3.06c-1.39,1.41-2.4,3.21-2.94,5.11c-0.55,1.91-0.66,3.88-0.5,5.78					c0.08,0.95,0.22,1.89,0.42,2.8c0.2,0.93,0.46,1.86,0.79,2.76c1.3,3.61,3.53,6.77,6.09,9.45c1.8,1.87,3.77,3.53,5.84,5.03					c-4.7,0.27-9.44,0.42-14.23,0.42c-4.78,0-9.53-0.14-14.23-0.42c2.07-1.5,4.04-3.15,5.84-5.03c2.56-2.67,4.79-5.83,6.09-9.45					c0.32-0.9,0.59-1.82,0.79-2.76c0.19-0.92,0.34-1.85,0.42-2.8c0.15-1.9,0.05-3.87-0.5-5.78c-0.54-1.9-1.56-3.7-2.94-5.11					c-1.38-1.41-3.08-2.44-4.88-3.06c-1.8-0.62-3.7-0.89-5.6-0.71c-0.95,0.1-1.91,0.31-2.83,0.74c-0.23,0.11-0.46,0.23-0.68,0.38					c-0.21,0.14-0.39,0.27-0.58,0.41c-0.37,0.28-0.72,0.58-1.06,0.9c-1.35,1.28-2.38,2.95-2.8,4.77c-0.43,1.81-0.25,3.75,0.53,5.41					c0.76,1.66,2.17,3.03,3.89,3.58c1.72,0.57,3.57,0.28,5.12-0.46c-0.56,0.21-1.16,0.36-1.75,0.44c0.91-0.27,1.76-0.78,2.44-1.53					c1.99-2.2,1.82-5.6-0.38-7.59c-2.2-1.99-5.6-1.82-7.59,0.38c-0.8,0.89-1.25,1.97-1.36,3.08c-0.1-1.01,0.01-2.03,0.32-2.97					c0.49-1.52,1.47-2.84,2.7-3.84c0.31-0.25,0.63-0.48,0.97-0.7c0.16-0.1,0.35-0.22,0.5-0.3c0.15-0.08,0.31-0.15,0.47-0.21					c0.67-0.25,1.43-0.36,2.2-0.38c1.55-0.02,3.13,0.33,4.54,0.96c1.42,0.63,2.68,1.55,3.62,2.69c0.95,1.14,1.57,2.5,1.86,3.94					c0.3,1.45,0.26,2.98,0.01,4.51c-0.13,0.76-0.31,1.53-0.53,2.28c-0.22,0.74-0.49,1.46-0.81,2.16c-1.28,2.81-3.31,5.28-5.7,7.4					c-2.39,2.12-5.13,3.91-8.02,5.44c-1.44,0.77-2.93,1.46-4.44,2.1c-0.2,0.08-0.41,0.16-0.61,0.24c-9.99-1.03-19.73-2.69-29.1-4.94					c-2-0.95-3.84-2.2-5.25-3.82c-0.17-0.21-0.35-0.41-0.52-0.63l-0.47-0.67l-0.44-0.71l-0.39-0.73c-0.48-0.98-0.8-2.02-0.89-3.06					c-0.04-0.52-0.04-1.04,0.04-1.55c0.07-0.51,0.21-1.02,0.42-1.49c0.4-0.97,1.08-1.84,1.91-2.55c0.83-0.71,1.83-1.26,2.89-1.56					c0.52-0.15,1.06-0.22,1.57-0.19c0.13,0,0.24,0.03,0.37,0.05c0.12,0.02,0.27,0.07,0.4,0.11c0.28,0.07,0.53,0.18,0.8,0.27					c1.03,0.44,1.97,1.12,2.6,2.06c0.39,0.57,0.67,1.23,0.81,1.93c-0.3-0.72-0.81-1.36-1.53-1.79c-1.79-1.09-4.13-0.53-5.22,1.26					c-1.09,1.79-0.53,4.13,1.26,5.22c0.6,0.37,1.26,0.54,1.92,0.55c-0.41,0.06-0.82,0.08-1.24,0.05c1.2,0.18,2.51,0.02,3.56-0.72					c1.05-0.72,1.73-1.93,1.92-3.2c0.2-1.28-0.07-2.63-0.73-3.77c-0.64-1.16-1.69-2.06-2.85-2.67c-0.3-0.14-0.59-0.29-0.9-0.39					c-0.16-0.06-0.3-0.12-0.47-0.17c-0.18-0.05-0.36-0.1-0.53-0.12c-0.71-0.11-1.4-0.06-2.06,0.06c-1.33,0.26-2.56,0.82-3.65,1.6					c-1.08,0.79-2.04,1.82-2.69,3.06c-0.66,1.23-0.99,2.66-0.97,4.05c0.01,1.4,0.33,2.76,0.81,4.02l0.4,0.93l0.45,0.89l0.52,0.87					c0.18,0.29,0.38,0.56,0.57,0.84c0,0,0,0,0,0.01c-17.96-5.03-34.4-12.3-48.51-21.59c-6.92-4.55-13.1-9.5-18.41-14.73h-0.37v-0.02					H4.36v0.01H0.42L0,216.49c13.87,19.68,35.75,36.33,63.27,48.13c25.59,10.98,54.95,17.22,85.4,18.24l2.04,0.63					c1.32,0.41,2.35,1.54,2.73,2.98l3.28,12.53c0,0,0,0,0,0l3.28-12.53c0.38-1.44,1.41-2.57,2.73-2.98l1.84-0.57					c31.08-0.83,61.08-7.11,87.17-18.3c27.52-11.81,49.4-28.45,63.27-48.13l-0.42-0.29H310.41z M11.07,219.07h16.68					c1.9,1.83,3.91,3.63,6.01,5.38l-11.89,5.82C17.96,226.7,14.34,222.97,11.07,219.07z M24.19,232.34l12.03-5.88l-0.01-0.02					c2.7,2.14,5.56,4.22,8.55,6.23l-9.17,8.51C31.57,238.38,27.76,235.43,24.19,232.34z M38.04,242.84l9.2-8.55					c2.73,1.75,5.54,3.43,8.44,5.04l-6.36,10.38C45.4,247.54,41.64,245.25,38.04,242.84z M51.84,251.11l6.37-10.4					c3.64,1.94,7.39,3.76,11.24,5.46l-4.89,11.09C60.18,255.34,55.93,253.29,51.84,251.11z M67.2,258.4l4.89-11.09					c3.62,1.53,7.32,2.96,11.11,4.28l-4.05,11.4C75.07,261.57,71.09,260.03,67.2,258.4z M81.88,263.91l4.05-11.4					c3.66,1.22,7.4,2.34,11.2,3.36l-3.22,11.66C89.82,266.43,85.81,265.22,81.88,263.91z M111.5,271.58					c-5.03-0.95-9.97-2.06-14.82-3.3l3.22-11.67c4.6,1.17,9.29,2.2,14.05,3.08L111.5,271.58z M128.45,274.16					c-4.77-0.55-9.47-1.26-14.11-2.08l2.45-11.89c4.51,0.78,9.09,1.43,13.73,1.94L128.45,274.16z M145.54,275.55					c-4.79-0.23-9.53-0.6-14.22-1.09l2.07-12.03c4.41,0.44,8.87,0.75,13.37,0.94L145.54,275.55z M153.42,273.35					c-0.27,1.01-0.86,1.86-1.64,2.42c-1.12-0.03-2.24-0.07-3.36-0.11l1.22-12.17c2.11,0.07,4.23,0.1,6.35,0.11L153.42,273.35z					 M161.68,275.79c-0.79-0.56-1.39-1.42-1.66-2.44l-2.57-9.74c0.02,0,0.03,0,0.05,0c2.56,0,5.1-0.04,7.63-0.12l1.22,12.17					C164.8,275.72,163.24,275.76,161.68,275.79z M169.23,275.56l-1.22-12.18c4.5-0.19,8.96-0.5,13.37-0.93l2.07,12.03					C178.76,274.97,174.02,275.34,169.23,275.56z M186.32,274.18l-2.07-12.03c4.64-0.51,9.22-1.16,13.73-1.93l2.45,11.9					C195.8,272.93,191.09,273.63,186.32,274.18z M203.28,271.62l-2.45-11.9c4.77-0.88,9.46-1.9,14.06-3.07l3.22,11.67					C213.25,269.57,208.31,270.68,203.28,271.62z M220.88,267.6l-3.22-11.67c3.8-1.02,7.54-2.14,11.21-3.35l4.04,11.4					C228.99,265.29,224.97,266.49,220.88,267.6z M235.65,263.06l-4.05-11.41c3.79-1.32,7.5-2.74,11.12-4.26l4.89,11.09					C243.71,260.11,239.73,261.64,235.65,263.06z M250.25,257.35l-4.89-11.09c3.86-1.7,7.62-3.52,11.26-5.45l6.36,10.4					C258.89,253.38,254.64,255.43,250.25,257.35z M265.51,249.81l-6.36-10.38c2.9-1.61,5.73-3.29,8.47-5.05l9.2,8.55					C273.22,245.34,269.44,247.64,265.51,249.81z M279.27,241.27l-9.17-8.51c3-2.01,5.86-4.09,8.58-6.24l12.04,5.89					C287.14,235.51,283.31,238.46,279.27,241.27z M293.04,230.34l-11.89-5.82c2.13-1.78,4.17-3.6,6.1-5.46h16.68					C300.64,223,296.99,226.75,293.04,230.34z"></path>
                                              </g>
                                      </g>
                  <g>
                                          <path d="M8.74,118.25C37.08,81.88,94.76,58.61,157.5,58.61s120.42,23.27,148.76,59.64h8.32l0.41-0.29				c-9.62-13.65-23.1-25.84-39.63-35.96c1.55-0.53,3.04-1.3,4.41-2.38c1.14-0.95,2.1-2.19,2.66-3.59c0.56-1.4,0.74-2.93,0.53-4.37				c-0.19-1.44-0.72-2.8-1.54-3.97c-0.41-0.58-0.9-1.12-1.47-1.57c-0.58-0.46-1.18-0.79-1.82-1.07c-1.28-0.55-2.74-0.74-4.11-0.44				c-1.36,0.29-2.59,1.05-3.43,2.11c-0.85,1.04-1.3,2.41-1.13,3.72c0.15,1.32,0.93,2.44,1.91,3.21c-0.29-0.28-0.54-0.6-0.76-0.94				c0.44,0.47,1,0.85,1.67,1.05c2.02,0.61,4.16-0.54,4.76-2.56c0.61-2.02-0.54-4.16-2.56-4.76c-0.67-0.2-1.34-0.19-1.97-0.04				c0.54-0.27,1.13-0.45,1.72-0.51c1.1-0.11,2.2,0.17,3.16,0.72c0.99,0.55,1.72,1.29,2.24,2.24c0.52,0.93,0.79,2.01,0.81,3.05				c0.03,1.05-0.22,2.06-0.69,2.92c-0.47,0.87-1.17,1.58-2.01,2.14c-0.85,0.55-1.83,0.96-2.88,1.23l-0.8,0.18l-0.82,0.13l-0.81,0.08				c-0.27,0.02-0.54,0.02-0.81,0.03c-0.8,0.01-1.61-0.07-2.42-0.18c-4.88-2.72-10.01-5.27-15.35-7.64c-0.19-0.16-0.4-0.34-0.53-0.46				l-0.13,0.16c-0.49-0.22-0.97-0.44-1.47-0.65c-4.1-1.76-8.3-3.38-12.58-4.89c-0.49-0.76-0.94-1.55-1.3-2.36				c-0.88-2.02-1.22-4.21-0.73-6.28c0.48-2.07,1.79-3.98,3.58-5.35c0.89-0.68,1.9-1.24,2.96-1.61c1.06-0.36,2.17-0.55,3.22-0.37				c1.14,0.17,2.24,0.53,3.23,1.1c0.98,0.57,1.85,1.37,2.48,2.33c0.5,0.75,0.84,1.61,1.03,2.51c-0.47-1.09-1.29-2.03-2.42-2.62				c-2.62-1.38-5.87-0.38-7.26,2.24c-1.38,2.62-0.38,5.87,2.24,7.26c0.89,0.47,1.85,0.66,2.78,0.61c-0.58,0.12-1.17,0.19-1.76,0.18				c1.24,0.11,2.53-0.04,3.7-0.58c1.17-0.53,2.17-1.46,2.81-2.6c1.3-2.29,1.22-5.27-0.07-7.62c-0.64-1.19-1.58-2.21-2.7-2.99				c-1.12-0.78-2.39-1.31-3.7-1.62c-1.4-0.35-2.86-0.22-4.18,0.12c-1.34,0.34-2.59,0.91-3.75,1.66c-0.72,0.46-1.39,1.01-2.01,1.61				c-2.28,1.06-5.55-1.67-0.06-10.04c-7.44,7.1-8.04,15.74-6.77,21.53c-22.73-6.98-47.56-10.63-72.96-10.63				c-25.3,0-50.04,3.61-72.7,10.54c1.25-5.79,0.62-14.38-6.79-21.45c5.23,7.98,2.5,10.83,0.26,10.16c-0.66-0.66-1.37-1.24-2.14-1.73				c-1.16-0.74-2.41-1.31-3.75-1.66c-1.32-0.34-2.78-0.47-4.18-0.12c-1.31,0.31-2.58,0.84-3.7,1.62c-1.11,0.78-2.06,1.8-2.7,2.99				c-1.3,2.36-1.38,5.33-0.07,7.62c0.64,1.14,1.64,2.07,2.81,2.6c1.17,0.54,2.46,0.68,3.7,0.58c-0.59,0-1.19-0.06-1.76-0.18				c0.93,0.05,1.89-0.14,2.78-0.61c2.62-1.38,3.63-4.63,2.24-7.26s-4.63-3.63-7.26-2.24c-1.13,0.6-1.96,1.54-2.42,2.62				c0.18-0.9,0.53-1.76,1.03-2.51c0.63-0.97,1.49-1.76,2.48-2.33c0.99-0.57,2.09-0.93,3.23-1.1c1.05-0.17,2.15,0.01,3.22,0.37				c1.06,0.36,2.07,0.92,2.96,1.61c1.79,1.37,3.1,3.28,3.58,5.35c0.49,2.07,0.15,4.26-0.73,6.28c-0.32,0.74-0.73,1.46-1.17,2.16				c-4.47,1.57-8.87,3.25-13.15,5.09c-0.39,0.17-0.76,0.34-1.14,0.51l-0.02-0.02c-0.02,0.01-0.04,0.04-0.06,0.05				c-5.73,2.5-11.21,5.22-16.42,8.13c-0.61,0.07-1.21,0.1-1.82,0.1c-0.27-0.01-0.54-0.01-0.81-0.03l-0.81-0.08l-0.82-0.13l-0.8-0.18				c-1.05-0.27-2.03-0.67-2.88-1.23c-0.84-0.56-1.54-1.27-2.01-2.14c-0.47-0.86-0.72-1.88-0.69-2.92c0.02-1.04,0.29-2.11,0.81-3.05				c0.52-0.95,1.24-1.69,2.24-2.24c0.96-0.55,2.05-0.82,3.16-0.72c0.59,0.06,1.18,0.23,1.72,0.51c-0.63-0.15-1.3-0.16-1.97,0.04				c-2.02,0.61-3.17,2.74-2.56,4.76c0.61,2.02,2.74,3.17,4.76,2.56c0.67-0.2,1.22-0.58,1.67-1.05c-0.22,0.34-0.47,0.66-0.76,0.94				c0.97-0.77,1.75-1.89,1.91-3.21c0.17-1.31-0.29-2.68-1.13-3.72c-0.84-1.05-2.07-1.82-3.43-2.11c-1.36-0.3-2.83-0.11-4.11,0.44				c-0.64,0.27-1.24,0.6-1.82,1.07c-0.57,0.45-1.05,0.99-1.47,1.57c-0.83,1.17-1.35,2.53-1.54,3.97c-0.2,1.44-0.03,2.96,0.53,4.37				c0.56,1.41,1.52,2.64,2.66,3.59c1.28,1.01,2.68,1.75,4.13,2.28C23.19,92.04,9.65,104.26,0,117.96l0.41,0.29H8.74z"></path>
                                      </g>
                  <g>
                                          <path d="M168.01,285.9c-1.41,0-2.55,1.14-2.55,2.55c0,1.41,1.14,2.55,2.55,2.55c1.41,0,2.55-1.14,2.55-2.55				C170.56,287.04,169.42,285.9,168.01,285.9z"></path>
                                      </g>
                  <g>
                                          <circle cx="179.73" cy="287.69" r="2.13"></circle>
                                      </g>
                  <g>
                                          <path d="M189.68,284.64c-0.99,0-1.8,0.81-1.8,1.8s0.81,1.8,1.8,1.8c0.99,0,1.8-0.81,1.8-1.8				S190.68,284.64,189.68,284.64z"></path>
                                      </g>
                  <g>
                                          <path d="M146.18,285.9c-1.41,0-2.55,1.14-2.55,2.55c0,1.41,1.14,2.55,2.55,2.55c1.41,0,2.55-1.14,2.55-2.55				C148.73,287.04,147.59,285.9,146.18,285.9z"></path>
                                      </g>
                  <g>
                                          <path d="M134.46,285.56c-1.18,0-2.13,0.96-2.13,2.13c0,1.18,0.96,2.13,2.13,2.13c1.18,0,2.13-0.96,2.13-2.13				C136.6,286.52,135.64,285.56,134.46,285.56z"></path>
                                      </g>
                  <g>
                                          <path d="M124.51,284.64c-0.99,0-1.8,0.81-1.8,1.8s0.81,1.8,1.8,1.8c0.99,0,1.8-0.81,1.8-1.8				S125.5,284.64,124.51,284.64z"></path>
                                      </g>
                  <g>
                                          <path d="M150.73,25.62c2.26,0.68,3.98,2.52,4.5,4.82l1.74,7.73l0.53,2.29l2.26-10.01c0.52-2.3,2.24-4.14,4.5-4.82				l4.48-1.34l3.2-1c0,0,0,0,0,0l-0.02-0.01l0,0.01l-7.67-2.3c-2.26-0.68-3.98-2.52-4.5-4.82l-2.27-10.04l-2.27,10.04				c-0.52,2.3-2.24,4.14-4.5,4.82l-7.67,2.3l3.56,1.11L150.73,25.62z"></path>
                                      </g>
                              </g>
                      </g>
              </g>
    </g>
    <g id="text_group" transform="rotate(0)" opacity="1">
      <g id="text_layer_1_0" fill="#87092d" transform="translate(1516.8251603339845, 913.8344999999999)">
                  <path d="M23.03 81.86L23.03 81.86Q20.95 83.17 18.30 83.17Q15.65 83.17 13.58 81.86L13.58 81.86Q11.50 83.17 9.72 83.17Q7.95 83.17 6.81 82.86Q5.67 82.56 4.81 82.03L4.81 82.03Q3.06 80.97 3.06 79.38L3.06 79.38Q3.06 78.56 3.51 77.95L3.51 77.95Q4.40 78.64 5.79 78.64L5.79 78.64Q9.42 78.64 10.80 75.54L10.80 75.54L10.80 55.61Q10.80 53.73 10.03 52.84L10.03 52.84Q8.81 51.33 5.83 49.86L5.83 49.86Q8.60 48.60 9.42 47.62L9.42 47.62Q10.80 46.03 10.80 44.03L10.80 44.03L10.80 26.83Q9.42 23.69 5.79 23.69L5.79 23.69Q4.40 23.69 3.51 24.38L3.51 24.38Q3.06 23.77 3.06 22.97Q3.06 22.18 3.53 21.48Q4.00 20.79 4.81 20.30L4.81 20.30Q6.69 19.16 9.11 19.16Q11.54 19.16 13.58 20.51L13.58 20.51Q15.70 19.16 18.30 19.16Q20.91 19.16 23.03 20.51L23.03 20.51Q25.07 19.16 26.87 19.16Q28.66 19.16 29.80 19.47Q30.94 19.77 31.80 20.30L31.80 20.30Q33.55 21.36 33.55 22.95L33.55 22.95Q33.55 23.77 33.10 24.38L33.10 24.38Q32.21 23.69 30.82 23.69L30.82 23.69Q27.19 23.69 25.81 26.83L25.81 26.83L25.81 44.03Q25.81 46.03 26.66 47.01L26.66 47.01Q28.01 48.60 30.78 49.86L30.78 49.86Q27.80 51.33 26.99 52.26L26.99 52.26Q25.81 53.73 25.81 55.61L25.81 55.61L25.81 75.54Q27.19 78.64 30.82 78.64L30.82 78.64Q32.21 78.64 33.10 77.95L33.10 77.95Q33.55 78.56 33.55 79.36Q33.55 80.15 33.08 80.84Q32.61 81.54 31.80 82.03L31.80 82.03Q29.92 83.17 27.52 83.17Q25.11 83.17 23.03 81.86ZM14.72 66.25L14.72 71.55Q16.76 70.77 16.96 66.21L16.96 66.21Q17.20 61.64 17.20 53.57Q17.20 45.50 17.18 42.83Q17.16 40.16 17.12 38.53L17.12 38.53Q17.00 33.72 16.21 32.72Q15.41 31.72 14.72 31.39L14.72 31.39Q14.72 45.58 14.23 47.54L14.23 47.54Q13.66 49.17 11.46 49.86L11.46 49.86Q13.90 50.72 14.23 51.94L14.23 51.94Q14.72 53.90 14.72 66.25L14.72 66.25ZM54.60 82.07L54.60 82.07Q53.10 83.17 51.16 83.17Q49.22 83.17 48.06 82.17Q46.90 81.17 46.90 79.86Q46.90 78.56 47.31 77.95L47.31 77.95Q48.49 78.64 51.06 78.64L51.06 78.64Q52.08 78.64 53.30 77.60Q54.52 76.56 55.26 74.73L55.26 74.73L55.26 55.61Q55.26 53.69 54.44 52.75L54.44 52.75Q53.22 51.29 50.28 49.86L50.28 49.86Q53.26 48.43 54.03 47.49L54.03 47.49Q55.26 45.95 55.26 44.03L55.26 44.03L55.30 26.25Q54.32 23.69 50.98 23.69L50.98 23.69Q49.26 23.69 48.45 24.38L48.45 24.38Q48.04 23.85 48.04 22.99Q48.04 22.14 48.41 21.44Q48.77 20.75 49.43 20.22L49.43 20.22Q50.81 19.16 53.14 19.16Q55.46 19.16 56.97 20.51L56.97 20.51Q58.31 19.16 60.11 19.16Q61.90 19.16 63.16 20.67L63.16 20.67Q64.75 19.16 65.98 19.16Q67.20 19.16 67.85 19.36Q68.51 19.57 69.16 20.14L69.16 20.14Q70.46 21.16 71.89 24.26L71.89 24.26L87.50 56.67L100.39 24.91L101.53 22.26Q102.55 20.02 103.44 19.59Q104.34 19.16 105.54 19.16Q106.75 19.16 108.01 20.06L108.01 20.06Q109.56 19.16 112.07 19.16Q114.57 19.16 116.41 20.51L116.41 20.51Q118.04 19.16 119.81 19.16Q121.59 19.16 122.58 19.45Q123.58 19.73 124.32 20.22L124.32 20.22Q125.87 21.32 125.87 22.95L125.87 22.95Q125.87 23.77 125.42 24.38L125.42 24.38Q124.52 23.69 123.13 23.69L123.13 23.69Q120.04 23.69 118.94 26.58L118.94 26.58L118.94 44.03Q118.94 46.03 119.79 47.01L119.79 47.01Q121.14 48.60 123.91 49.86L123.91 49.86Q120.93 51.33 120.12 52.26L120.12 52.26Q118.94 53.73 118.94 55.61L118.94 55.61L118.94 75.54Q120.32 78.64 123.95 78.64L123.95 78.64Q125.34 78.64 126.23 77.95L126.23 77.95Q126.68 78.56 126.68 79.36Q126.68 80.15 126.21 80.84Q125.74 81.54 124.93 82.03L124.93 82.03Q123.05 83.17 120.65 83.17Q118.24 83.17 116.16 81.86L116.16 81.86Q114.25 83.17 111.80 83.17L111.80 83.17Q109.19 83.17 107.19 81.86L107.19 81.86Q105.12 83.17 103.34 83.17Q101.57 83.17 100.43 82.86Q99.29 82.56 98.43 82.03L98.43 82.03Q96.68 80.97 96.68 79.38L96.68 79.38Q96.68 78.56 97.12 77.95L97.12 77.95Q98.02 78.64 99.41 78.64L99.41 78.64Q103.04 78.64 104.42 75.54L104.42 75.54L104.42 30.98L88.52 70.37L86.77 74.36Q85.51 77.21 85.00 77.58Q84.49 77.95 84.16 77.95L84.16 77.95Q83.14 77.95 82.73 77.74L82.73 77.74L60.96 34.82L60.96 74.69Q61.74 76.56 63.08 77.60Q64.43 78.64 66.10 78.64Q67.77 78.64 68.95 77.95L68.95 77.95Q69.40 78.68 69.40 79.97Q69.40 81.25 68.14 82.21Q66.87 83.17 64.88 83.17Q62.88 83.17 61.21 82.15L61.21 82.15Q59.74 83.17 57.84 83.17Q55.95 83.17 54.60 82.07ZM80.82 59.56L66.71 31.35Q66.30 31.96 66.30 33.10L66.30 33.10Q66.30 36.41 69.08 41.87L69.08 41.87L83.92 71.51Q84.20 71.14 84.20 69.96L84.20 69.96Q84.20 66.41 80.82 59.56L80.82 59.56ZM108.34 31.39L108.34 71.55Q110.37 70.77 110.58 66.21L110.58 66.21Q110.82 61.64 110.82 53.57Q110.82 45.50 110.80 42.83Q110.78 40.16 110.74 38.53L110.74 38.53Q110.62 33.72 109.82 32.72Q109.03 31.72 108.34 31.39L108.34 31.39ZM60.43 72.57L60.39 72.08Q60.39 72.40 60.43 72.57L60.43 72.57ZM55.79 72.57L55.83 72.08Q55.79 72.24 55.79 72.57L55.79 72.57ZM147.57 82.07L147.57 82.07Q146.06 83.17 144.12 83.17Q142.19 83.17 141.03 82.17Q139.86 81.17 139.86 79.86Q139.86 78.56 140.27 77.95L140.27 77.95Q141.45 78.64 144.02 78.64L144.02 78.64Q145.04 78.64 146.27 77.60Q147.49 76.56 148.22 74.73L148.22 74.73L148.22 55.61Q148.22 53.69 147.41 52.75L147.41 52.75Q146.18 51.29 143.25 49.86L143.25 49.86Q146.22 48.43 147.00 47.49L147.00 47.49Q148.22 45.95 148.22 44.03L148.22 44.03L148.26 26.25Q147.28 23.69 143.94 23.69L143.94 23.69Q142.23 23.69 141.41 24.38L141.41 24.38Q141.01 23.85 141.01 22.99Q141.01 22.14 141.37 21.44Q141.74 20.75 142.39 20.22L142.39 20.22Q143.78 19.16 146.10 19.16Q148.43 19.16 149.93 20.51L149.93 20.51Q151.28 19.16 153.07 19.16Q154.87 19.16 156.13 20.67L156.13 20.67Q157.72 19.16 158.94 19.16Q160.17 19.16 160.82 19.36Q161.47 19.57 162.12 20.14L162.12 20.14Q163.43 21.16 164.86 24.26L164.86 24.26L180.47 56.67L193.35 24.91L194.49 22.26Q195.51 20.02 196.41 19.59Q197.31 19.16 198.51 19.16Q199.71 19.16 200.98 20.06L200.98 20.06Q202.52 19.16 205.03 19.16Q207.54 19.16 209.37 20.51L209.37 20.51Q211.00 19.16 212.78 19.16Q214.55 19.16 215.55 19.45Q216.55 19.73 217.28 20.22L217.28 20.22Q218.83 21.32 218.83 22.95L218.83 22.95Q218.83 23.77 218.38 24.38L218.38 24.38Q217.49 23.69 216.10 23.69L216.10 23.69Q213.00 23.69 211.90 26.58L211.90 26.58L211.90 44.03Q211.90 46.03 212.76 47.01L212.76 47.01Q214.10 48.60 216.88 49.86L216.88 49.86Q213.90 51.33 213.08 52.26L213.08 52.26Q211.90 53.73 211.90 55.61L211.90 55.61L211.90 75.54Q213.29 78.64 216.92 78.64L216.92 78.64Q218.30 78.64 219.20 77.95L219.20 77.95Q219.65 78.56 219.65 79.36Q219.65 80.15 219.18 80.84Q218.71 81.54 217.89 82.03L217.89 82.03Q216.02 83.17 213.61 83.17Q211.21 83.17 209.13 81.86L209.13 81.86Q207.21 83.17 204.77 83.17L204.77 83.17Q202.16 83.17 200.16 81.86L200.16 81.86Q198.08 83.17 196.31 83.17Q194.53 83.17 193.39 82.86Q192.25 82.56 191.40 82.03L191.40 82.03Q189.64 80.97 189.64 79.38L189.64 79.38Q189.64 78.56 190.09 77.95L190.09 77.95Q190.99 78.64 192.37 78.64L192.37 78.64Q196.00 78.64 197.39 75.54L197.39 75.54L197.39 30.98L181.49 70.37L179.74 74.36Q178.47 77.21 177.96 77.58Q177.45 77.95 177.13 77.95L177.13 77.95Q176.11 77.95 175.70 77.74L175.70 77.74L153.93 34.82L153.93 74.69Q154.70 76.56 156.05 77.60Q157.39 78.64 159.07 78.64Q160.74 78.64 161.92 77.95L161.92 77.95Q162.37 78.68 162.37 79.97Q162.37 81.25 161.10 82.21Q159.84 83.17 157.84 83.17Q155.85 83.17 154.17 82.15L154.17 82.15Q152.71 83.17 150.81 83.17Q148.91 83.17 147.57 82.07ZM173.78 59.56L159.68 31.35Q159.27 31.96 159.27 33.10L159.27 33.10Q159.27 36.41 162.04 41.87L162.04 41.87L176.88 71.51Q177.17 71.14 177.17 69.96L177.17 69.96Q177.17 66.41 173.78 59.56L173.78 59.56ZM201.30 31.39L201.30 71.55Q203.34 70.77 203.54 66.21L203.54 66.21Q203.79 61.64 203.79 53.57Q203.79 45.50 203.77 42.83Q203.75 40.16 203.71 38.53L203.71 38.53Q203.58 33.72 202.79 32.72Q202.00 31.72 201.30 31.39L201.30 31.39ZM153.40 72.57L153.36 72.08Q153.36 72.40 153.40 72.57L153.40 72.57ZM148.75 72.57L148.79 72.08Q148.75 72.24 148.75 72.57L148.75 72.57ZM244.41 76.32Q241.03 72.81 238.93 67.88Q236.83 62.95 236.34 58.54Q235.85 54.14 234.85 52.45Q233.85 50.76 232.02 49.86L232.02 49.86Q235.56 48.19 236.19 42.99Q236.83 37.79 239.07 33.27Q241.31 28.74 244.78 25.52L244.78 25.52Q252.07 18.75 262.35 18.75L262.35 18.75Q272.91 18.75 279.84 25.03L279.84 25.03Q287.05 31.55 288.32 43.30L288.32 43.30Q288.85 48.19 292.47 49.86L292.47 49.86Q288.93 51.61 288.28 57.28Q287.62 62.95 285.71 67.88Q283.79 72.81 280.57 76.32L280.57 76.32Q273.84 83.57 262.39 83.57L262.39 83.57Q251.42 83.57 244.41 76.32L244.41 76.32ZM257.74 49.86L257.74 49.86Q253.26 52.02 253.26 56.91L253.26 56.91L253.26 69.02Q253.26 75.67 258.76 77.54L258.76 77.54Q260.39 78.11 262.31 78.11Q264.22 78.11 265.83 77.54Q267.44 76.97 268.63 75.83L268.63 75.83Q271.07 73.46 271.07 69.02L271.07 69.02L271.07 56.91Q271.07 52.02 266.67 49.86L266.67 49.86Q271.07 47.82 271.07 43.30L271.07 43.30L271.07 33.55Q271.07 29.03 268.42 26.50L268.42 26.50Q265.93 24.18 262.27 24.18L262.27 24.18Q256.03 24.18 253.95 29.39L253.95 29.39Q253.26 31.15 253.26 33.55L253.26 33.55L253.26 43.30Q253.26 47.90 257.74 49.86ZM274.82 31.39L274.82 31.39Q275.96 34.82 275.96 43.17L275.96 43.17Q275.96 47.90 275.56 48.35Q275.15 48.80 274.74 49.08L274.74 49.08Q274.01 49.57 273.15 49.86L273.15 49.86Q275.60 50.96 275.72 51.98L275.72 51.98Q276.13 55.97 276.13 58.89Q276.13 61.80 276.04 63.58Q275.96 65.35 275.80 66.86L275.80 66.86Q275.47 70.08 274.98 71.55L274.98 71.55Q278.16 70.57 278.53 62.13L278.53 62.13Q278.74 57.40 278.74 51.59Q278.74 45.78 278.61 42.87Q278.49 39.95 278.25 38.08L278.25 38.08Q277.76 33.76 276.21 32.08L276.21 32.08Q275.76 31.60 274.82 31.39ZM245.43 71.55L245.43 71.55Q246.04 71.30 246.04 70.69L246.04 70.69Q246.04 69.79 245.18 67.88L245.18 67.88Q243.02 62.95 243.02 49.86L243.02 49.86Q243.02 40.32 245.31 33.63L245.31 33.63Q245.59 32.61 245.59 32.08Q245.59 31.55 245.06 31.39L245.06 31.39Q243.14 33.80 242.33 36.16L242.33 36.16Q240.82 40.48 239.92 47.86L239.92 47.86Q239.80 48.92 237.52 49.86L237.52 49.86Q239.80 50.88 239.92 51.94L239.92 51.94Q241.39 64.58 243.67 68.82L243.67 68.82Q244.45 70.32 245.43 71.55Z"></path>
              </g>
    </g>
  </svg>