<svg  viewBox="0 0 48 8" xmlns="http://www.w3.org/2000/svg"><g transform="translate(.823)" fill="none" fill-rule="evenodd"><path d="M2.144.161H0V7.32h2.13c1.135 0 1.953-.258 2.67-.828.853-.675 1.359-1.693 1.359-2.749 0-2.113-1.65-3.58-4.015-3.58zM3.85 5.537c-.464.396-1.054.57-1.999.57H1.46V1.374h.391c.945 0 1.513.162 2 .578.501.43.803 1.094.803 1.78 0 .69-.302 1.377-.804 1.805zM6.832.16h1.454V7.32H6.832V.161zm5.023 2.745c1.66.58 2.155 1.096 2.155 2.235 0 1.382-1.067 2.352-2.582 2.352-1.11 0-1.916-.421-2.589-1.364l.94-.871c.337.624.898.956 1.592.956.652 0 1.134-.428 1.134-1.01 0-.299-.145-.557-.437-.738-.147-.088-.438-.218-1.01-.408C9.69 3.58 9.22 3.079 9.22 2.09 9.22.924 10.23.043 11.553.043c.818 0 1.569.267 2.196.795l-.76.953c-.383-.409-.742-.576-1.18-.576-.63 0-1.088.341-1.088.79 0 .388.257.593 1.134.9zm2.614.837c0-2.08 1.769-3.743 3.979-3.743.632 0 1.157.128 1.796.437v1.644c-.605-.571-1.134-.806-1.826-.806a2.43 2.43 0 0 0-2.445 2.458c0 1.45 1.04 2.468 2.509 2.468.664 0 1.177-.222 1.762-.784v1.645c-.662.298-1.2.417-1.826.417-2.223 0-3.95-1.631-3.95-3.736zm17.594 1.224L34.086.16h1.578L32.43 7.5h-.782L28.478.161h1.59l1.995 4.806zm4.26 2.352V.161h4.137v1.212h-2.678v1.589h2.576v1.212h-2.575v1.932h2.677V7.32h-4.137zm9.914-5.046c0-1.34-.961-2.112-2.645-2.112h-2.167V7.32h1.463V4.441h.19l2.015 2.878h1.794l-2.353-3.017c1.1-.215 1.703-.933 1.703-2.029zm-2.925 1.18h-.423V1.29h.447c.911 0 1.4.366 1.4 1.063 0 .716-.489 1.102-1.424 1.102z" fill="#1A1919"/><path d="M28.682 3.76c0 2.061-1.745 3.731-3.9 3.731-2.153 0-3.898-1.67-3.898-3.73 0-2.062 1.745-3.733 3.899-3.733s3.9 1.671 3.9 3.732z" fill="#E6772F"/></g></svg>
